<?xml version="1.0" encoding="UTF-8" standalone="no"?>
<!DOCTYPE svg PUBLIC "-//W3C//DTD SVG 1.1//EN" "http://www.w3.org/Graphics/SVG/1.1/DTD/svg11.dtd">
<svg width="100%" height="100%" viewBox="0 0 738 889" version="1.1" xmlns="http://www.w3.org/2000/svg" xmlns:xlink="http://www.w3.org/1999/xlink" xml:space="preserve" xmlns:serif="http://www.serif.com/" style="fill-rule:evenodd;clip-rule:evenodd;stroke-linecap:round;stroke-miterlimit:1.5;">
    <g id="Big-Box" serif:id="Big Box" transform="matrix(2.01369,0,0,1.88375,-0.36188,-16.0855)">
        <rect x="0.18" y="8.539" width="365.998" height="471.499" style="fill:none;"/>
        <clipPath id="_clip1">
            <rect x="0.18" y="8.539" width="365.998" height="471.499"/>
        </clipPath>
        <g clip-path="url(#_clip1)">
            <g id="Background" transform="matrix(1.00689,0,0,0.986209,-1.34191,3.23233)">
                <rect x="-1.792" y="0.962" width="370.253" height="486.076" style="fill:rgb(175,183,206);"/>
            </g>
            <g id="Sides" transform="matrix(1,0,0,1,0,5.30855)">
                <g transform="matrix(1.26733,0,0,1,-16.4697,1.24345e-14)">
                    <g transform="matrix(0.942934,0,0,0.296894,9.68785,283.706)">
                        <rect x="-0.023" y="401.972" width="56.265" height="4.731" style="fill:white;"/>
                    </g>
                    <g transform="matrix(0.942934,0,0,0.317139,9.68785,273.956)">
                        <rect x="-0.023" y="401.972" width="56.265" height="4.731"/>
                    </g>
                    <g transform="matrix(0.942934,0,0,0.296894,9.90481,263.404)">
                        <rect x="-0.023" y="401.972" width="56.265" height="4.731" style="fill:white;"/>
                    </g>
                    <g transform="matrix(0.942934,0,0,0.317139,9.90481,253.654)">
                        <rect x="-0.023" y="401.972" width="56.265" height="4.731"/>
                    </g>
                    <g transform="matrix(0.942934,0,0,0.296894,9.68785,243.699)">
                        <rect x="-0.023" y="401.972" width="56.265" height="4.731" style="fill:white;"/>
                    </g>
                    <g transform="matrix(0.942934,0,0,0.317139,9.68785,233.95)">
                        <rect x="-0.023" y="401.972" width="56.265" height="4.731"/>
                    </g>
                    <g transform="matrix(0.942934,0,0,0.296894,9.90481,223.398)">
                        <rect x="-0.023" y="401.972" width="56.265" height="4.731" style="fill:white;"/>
                    </g>
                    <g transform="matrix(0.942934,0,0,0.317139,9.90481,213.648)">
                        <rect x="-0.023" y="401.972" width="56.265" height="4.731"/>
                    </g>
                    <g transform="matrix(0.942934,0,0,0.296894,9.68785,203.693)">
                        <rect x="-0.023" y="401.972" width="56.265" height="4.731" style="fill:white;"/>
                    </g>
                    <g transform="matrix(0.942934,0,0,0.317139,9.68785,193.943)">
                        <rect x="-0.023" y="401.972" width="56.265" height="4.731"/>
                    </g>
                    <g transform="matrix(0.942934,0,0,0.296894,9.90481,183.391)">
                        <rect x="-0.023" y="401.972" width="56.265" height="4.731" style="fill:white;"/>
                    </g>
                    <g transform="matrix(0.942934,0,0,0.317139,9.90481,173.642)">
                        <rect x="-0.023" y="401.972" width="56.265" height="4.731"/>
                    </g>
                    <g transform="matrix(0.942934,0,0,0.296894,9.68785,163.687)">
                        <rect x="-0.023" y="401.972" width="56.265" height="4.731" style="fill:white;"/>
                    </g>
                    <g transform="matrix(0.942934,0,0,0.317139,9.68785,153.937)">
                        <rect x="-0.023" y="401.972" width="56.265" height="4.731"/>
                    </g>
                    <g transform="matrix(0.942934,0,0,0.296894,9.90481,143.385)">
                        <rect x="-0.023" y="401.972" width="56.265" height="4.731" style="fill:white;"/>
                    </g>
                    <g transform="matrix(0.942934,0,0,0.317139,9.90481,133.635)">
                        <rect x="-0.023" y="401.972" width="56.265" height="4.731"/>
                    </g>
                    <g transform="matrix(0.942934,0,0,0.296894,9.68785,124.951)">
                        <rect x="-0.023" y="401.972" width="56.265" height="4.731" style="fill:white;"/>
                    </g>
                    <g transform="matrix(0.942934,0,0,0.317139,9.68785,115.201)">
                        <rect x="-0.023" y="401.972" width="56.265" height="4.731"/>
                    </g>
                    <g transform="matrix(0.942934,0,0,0.296894,9.90481,104.649)">
                        <rect x="-0.023" y="401.972" width="56.265" height="4.731" style="fill:white;"/>
                    </g>
                    <g transform="matrix(0.942934,0,0,0.317139,9.90481,94.8992)">
                        <rect x="-0.023" y="401.972" width="56.265" height="4.731"/>
                    </g>
                    <g transform="matrix(0.942934,0,0,0.296894,9.68785,84.9443)">
                        <rect x="-0.023" y="401.972" width="56.265" height="4.731" style="fill:white;"/>
                    </g>
                    <g transform="matrix(0.942934,0,0,0.317139,9.68785,75.1947)">
                        <rect x="-0.023" y="401.972" width="56.265" height="4.731"/>
                    </g>
                    <g transform="matrix(0.942934,0,0,0.296894,9.90481,64.6426)">
                        <rect x="-0.023" y="401.972" width="56.265" height="4.731" style="fill:white;"/>
                    </g>
                    <g transform="matrix(0.942934,0,0,0.317139,9.90481,54.893)">
                        <rect x="-0.023" y="401.972" width="56.265" height="4.731"/>
                    </g>
                    <g transform="matrix(0.942934,0,0,0.296894,9.90481,46.2273)">
                        <rect x="-0.023" y="401.972" width="56.265" height="4.731" style="fill:white;"/>
                    </g>
                    <g transform="matrix(0.942934,0,0,0.317139,9.90481,36.4776)">
                        <rect x="-0.023" y="401.972" width="56.265" height="4.731"/>
                    </g>
                </g>
                <g transform="matrix(1.36447,0,0,1,-112.904,-1.00772)">
                    <g transform="matrix(0.855994,0,0,0.296894,302.771,284.713)">
                        <rect x="-0.023" y="401.972" width="56.265" height="4.731" style="fill:white;"/>
                    </g>
                    <g transform="matrix(0.855994,0,0,0.317139,302.771,274.964)">
                        <rect x="-0.023" y="401.972" width="56.265" height="4.731"/>
                    </g>
                    <g transform="matrix(0.855994,0,0,0.296894,302.968,264.412)">
                        <rect x="-0.023" y="401.972" width="56.265" height="4.731" style="fill:white;"/>
                    </g>
                    <g transform="matrix(0.855994,0,0,0.317139,302.968,254.662)">
                        <rect x="-0.023" y="401.972" width="56.265" height="4.731"/>
                    </g>
                    <g transform="matrix(0.855994,0,0,0.296894,302.771,244.707)">
                        <rect x="-0.023" y="401.972" width="56.265" height="4.731" style="fill:white;"/>
                    </g>
                    <g transform="matrix(0.855994,0,0,0.317139,302.771,234.957)">
                        <rect x="-0.023" y="401.972" width="56.265" height="4.731"/>
                    </g>
                    <g transform="matrix(0.855994,0,0,0.296894,302.968,224.405)">
                        <rect x="-0.023" y="401.972" width="56.265" height="4.731" style="fill:white;"/>
                    </g>
                    <g transform="matrix(0.855994,0,0,0.317139,302.968,214.656)">
                        <rect x="-0.023" y="401.972" width="56.265" height="4.731"/>
                    </g>
                    <g transform="matrix(0.855994,0,0,0.296894,302.771,204.701)">
                        <rect x="-0.023" y="401.972" width="56.265" height="4.731" style="fill:white;"/>
                    </g>
                    <g transform="matrix(0.855994,0,0,0.317139,302.771,194.951)">
                        <rect x="-0.023" y="401.972" width="56.265" height="4.731"/>
                    </g>
                    <g transform="matrix(0.855994,0,0,0.296894,302.968,184.399)">
                        <rect x="-0.023" y="401.972" width="56.265" height="4.731" style="fill:white;"/>
                    </g>
                    <g transform="matrix(0.855994,0,0,0.317139,302.968,174.649)">
                        <rect x="-0.023" y="401.972" width="56.265" height="4.731"/>
                    </g>
                    <g transform="matrix(0.855994,0,0,0.296894,302.771,164.695)">
                        <rect x="-0.023" y="401.972" width="56.265" height="4.731" style="fill:white;"/>
                    </g>
                    <g transform="matrix(0.855994,0,0,0.317139,302.771,154.945)">
                        <rect x="-0.023" y="401.972" width="56.265" height="4.731"/>
                    </g>
                    <g transform="matrix(0.855994,0,0,0.296894,302.968,144.393)">
                        <rect x="-0.023" y="401.972" width="56.265" height="4.731" style="fill:white;"/>
                    </g>
                    <g transform="matrix(0.855994,0,0,0.317139,302.968,134.643)">
                        <rect x="-0.023" y="401.972" width="56.265" height="4.731"/>
                    </g>
                    <g transform="matrix(0.855994,0,0,0.296894,302.771,125.958)">
                        <rect x="-0.023" y="401.972" width="56.265" height="4.731" style="fill:white;"/>
                    </g>
                    <g transform="matrix(0.855994,0,0,0.317139,302.771,116.209)">
                        <rect x="-0.023" y="401.972" width="56.265" height="4.731"/>
                    </g>
                    <g transform="matrix(0.855994,0,0,0.296894,302.968,105.657)">
                        <rect x="-0.023" y="401.972" width="56.265" height="4.731" style="fill:white;"/>
                    </g>
                    <g transform="matrix(0.855994,0,0,0.317139,302.968,95.907)">
                        <rect x="-0.023" y="401.972" width="56.265" height="4.731"/>
                    </g>
                    <g transform="matrix(0.855994,0,0,0.296894,302.771,85.952)">
                        <rect x="-0.023" y="401.972" width="56.265" height="4.731" style="fill:white;"/>
                    </g>
                    <g transform="matrix(0.855994,0,0,0.317139,302.771,76.2024)">
                        <rect x="-0.023" y="401.972" width="56.265" height="4.731"/>
                    </g>
                    <g transform="matrix(0.855994,0,0,0.296894,302.968,65.6503)">
                        <rect x="-0.023" y="401.972" width="56.265" height="4.731" style="fill:white;"/>
                    </g>
                    <g transform="matrix(0.855994,0,0,0.317139,302.968,55.9007)">
                        <rect x="-0.023" y="401.972" width="56.265" height="4.731"/>
                    </g>
                    <g transform="matrix(0.855994,0,0,0.296894,302.968,47.235)">
                        <rect x="-0.023" y="401.972" width="56.265" height="4.731" style="fill:white;"/>
                    </g>
                    <g transform="matrix(0.855994,0,0,0.317139,302.968,37.4854)">
                        <rect x="-0.023" y="401.972" width="56.265" height="4.731"/>
                    </g>
                </g>
            </g>
            <g transform="matrix(0.963572,0,0,1.02894,4.06729,-2.04204)">
                <g id="Box-Image" serif:id="Box Image">
                    <rect x="64.721" y="167.936" width="239.122" height="236.261" style="fill:rgb(191,191,191);stroke:black;stroke-width:1.25px;"/>
                </g>
            </g>
            <g id="sinclair" transform="matrix(0.935619,0,0,1.00016,25.3321,28.4538)">
                <g transform="matrix(1.01383,0,0,1.00105,-24.0742,-23.1845)">
                    <rect x="216.367" y="-0.614" width="141.74" height="51.621"/>
                </g>
                <g transform="matrix(1,0,0,1,-2.45468,-33.0077)">
                    <path d="M225.438,36.585L225.438,34.429L203.161,34.406L203.161,34.429L203.137,34.429L203.137,42.058L223.247,42.058L223.247,45.351L203.137,45.351L203.137,47.507L225.438,47.507L225.438,39.902L205.317,39.902L205.317,36.585L225.438,36.585Z" style="fill:white;fill-rule:nonzero;stroke:white;stroke-width:0.99px;stroke-linecap:butt;stroke-linejoin:round;stroke-miterlimit:1.41421;"/>
                    <path d="M229.745,34.406L227.6,34.406L227.6,47.507L229.745,47.507L229.745,34.406ZM229.826,32.531L229.826,30.374L227.6,30.374L227.6,32.531L229.826,32.531Z" style="fill:white;fill-rule:nonzero;stroke:white;stroke-width:0.99px;stroke-linecap:butt;stroke-linejoin:round;stroke-miterlimit:1.41421;"/>
                    <path d="M231.977,34.406L231.977,47.507L234.133,47.507L234.133,36.632L252.109,36.632L252.109,47.507L254.277,47.507L254.277,34.406L231.977,34.406Z" style="fill:white;fill-rule:nonzero;stroke:white;stroke-width:0.99px;stroke-linecap:butt;stroke-linejoin:round;stroke-miterlimit:1.41421;"/>
                    <path d="M278.775,36.679L278.775,34.523L256.427,34.523L256.427,47.507L278.775,47.507L278.775,45.351L258.584,45.351L258.584,36.679L278.775,36.679Z" style="fill:white;fill-rule:nonzero;stroke:white;stroke-width:0.99px;stroke-linecap:butt;stroke-linejoin:round;stroke-miterlimit:1.41421;"/>
                    <rect x="280.996" y="30.374" width="2.18" height="17.133" style="fill:white;fill-rule:nonzero;stroke:white;stroke-width:0.99px;stroke-linecap:butt;stroke-linejoin:round;stroke-miterlimit:1.41421;"/>
                    <path d="M307.673,34.523L307.626,34.523L285.325,34.523L285.325,36.679L305.458,36.679L305.458,39.937L285.325,39.913L285.325,47.507L307.673,47.507L307.673,34.523ZM305.458,45.339L287.482,45.339L287.482,42.105L305.458,42.105L305.458,45.339Z" style="fill:white;fill-rule:nonzero;stroke:white;stroke-width:0.99px;stroke-linecap:butt;stroke-linejoin:round;stroke-miterlimit:1.41421;"/>
                    <path d="M311.992,34.406L309.847,34.406L309.847,47.507L311.992,47.507L311.992,34.406ZM312.073,32.531L312.073,30.374L309.847,30.374L309.847,32.531L312.073,32.531Z" style="fill:white;fill-rule:nonzero;stroke:white;stroke-width:0.99px;stroke-linecap:butt;stroke-linejoin:round;stroke-miterlimit:1.41421;"/>
                    <path d="M316.38,36.679L336.571,36.679L336.571,34.523L314.223,34.523L314.223,47.507L316.38,47.507L316.38,36.679Z" style="fill:white;fill-rule:nonzero;stroke:white;stroke-width:0.99px;stroke-linecap:butt;stroke-linejoin:round;stroke-miterlimit:1.41421;"/>
                </g>
            </g>
            <g transform="matrix(0.4966,0,0,0.530855,92.1011,208.752)">
                <path d="M117.351,422.302C117.351,424.222 116.727,425.736 115.479,426.846C114.231,427.955 112.53,428.51 110.375,428.51C109.309,428.51 108.391,428.392 107.623,428.158C106.855,427.923 105.853,427.464 104.615,426.782L105.767,424.862C107.453,425.864 108.989,426.366 110.375,426.366C111.57,426.366 112.562,426.014 113.351,425.311C114.141,424.608 114.535,423.713 114.535,422.627C114.535,421.668 114.274,420.891 113.75,420.294C113.227,419.698 112.271,419.091 110.882,418.473L109.442,417.833C106.523,416.53 105.063,414.63 105.063,412.132C105.063,410.38 105.655,408.965 106.839,407.887C108.023,406.809 109.565,406.27 111.463,406.27C113.319,406.27 115.218,406.814 117.159,407.902L116.071,409.758C114.535,408.819 113.074,408.35 111.687,408.35C110.493,408.35 109.527,408.686 108.791,409.358C108.055,410.03 107.687,410.899 107.687,411.966C107.687,413.48 108.637,414.664 110.535,415.518L111.975,416.158C113.298,416.755 114.162,417.176 114.567,417.422C114.973,417.667 115.41,418.035 115.879,418.526C116.861,419.55 117.351,420.808 117.351,422.302Z" style="fill-rule:nonzero;stroke:black;stroke-width:1px;stroke-linecap:butt;stroke-linejoin:round;stroke-miterlimit:1.41421;"/>
                <path d="M134.503,420.254C134.503,422.707 133.805,424.696 132.407,426.222C131.01,427.747 129.181,428.51 126.919,428.51C124.786,428.51 123.074,427.763 121.783,426.27C120.493,424.776 119.847,422.803 119.847,420.35C119.847,417.939 120.546,415.982 121.943,414.478C123.341,412.974 125.17,412.222 127.431,412.222C129.522,412.222 131.223,412.963 132.535,414.446C133.847,415.928 134.503,417.864 134.503,420.254ZM131.879,420.126C131.879,418.376 131.447,416.942 130.583,415.822C129.719,414.702 128.615,414.142 127.271,414.142C125.863,414.142 124.711,414.723 123.815,415.886C122.919,417.048 122.471,418.547 122.471,420.382C122.471,422.238 122.893,423.726 123.735,424.846C124.578,425.966 125.703,426.526 127.111,426.526C128.519,426.526 129.666,425.934 130.551,424.75C131.437,423.566 131.879,422.024 131.879,420.126Z" style="fill-rule:nonzero;stroke:black;stroke-width:1px;stroke-linecap:butt;stroke-linejoin:round;stroke-miterlimit:1.41421;"/>
                <path d="M145.415,406.622L144.749,406.622C143.564,406.622 142.706,406.995 142.177,407.742C141.648,408.488 141.383,409.726 141.383,411.454L141.383,412.798L145.415,412.798L145.415,414.622L141.383,414.622L141.383,428.062L138.855,428.062L138.855,414.622L135.911,414.622L135.911,412.798L138.855,412.798L138.855,411.459C138.855,407.061 140.702,404.862 144.396,404.862L145.415,404.862L145.415,406.622Z" style="fill-rule:nonzero;stroke:black;stroke-width:1px;stroke-linecap:butt;stroke-linejoin:round;stroke-miterlimit:1.41421;"/>
                <path d="M156.519,426.878C155.124,427.795 153.845,428.254 152.682,428.254C151.455,428.254 150.546,427.784 149.954,426.846C149.552,426.206 149.351,425.086 149.351,423.486L149.351,414.494L146.599,414.494L146.599,412.734L149.351,412.734L149.351,406.91L151.879,406.91L151.879,412.734L156.007,412.734L156.007,414.494L151.879,414.494L151.879,423.486C151.879,425.363 152.374,426.302 153.363,426.302C153.889,426.302 154.689,425.982 155.762,425.342L156.519,426.878Z" style="fill-rule:nonzero;stroke:black;stroke-width:1px;stroke-linecap:butt;stroke-linejoin:round;stroke-miterlimit:1.41421;"/>
                <path d="M179.431,413.015L174.12,428.062L171.708,428.062L168.838,418.11C168.562,417.171 168.392,416.264 168.328,415.39L168.2,415.39C168.052,416.35 167.829,417.257 167.531,418.111L164.141,428.062L161.707,428.062L157.159,413.022L159.655,412.318L162.151,421.79C162.535,423.262 162.813,424.595 162.983,425.79L163.111,425.79C163.346,424.574 163.698,423.24 164.167,421.79L167.079,412.702L169.575,412.702L172.135,421.79C172.541,423.262 172.819,424.595 172.969,425.79L173.065,425.79C173.3,424.382 173.621,423.049 174.027,421.791L177.103,412.31L179.431,413.015Z" style="fill-rule:nonzero;stroke:black;stroke-width:1px;stroke-linecap:butt;stroke-linejoin:round;stroke-miterlimit:1.41421;"/>
                <path d="M194.663,427.408C193.533,428.1 192.637,428.446 191.975,428.446C190.461,428.446 189.703,427.657 189.703,426.081L189.703,425.854C188.295,427.624 186.653,428.51 184.775,428.51C183.581,428.51 182.578,428.083 181.767,427.23C180.957,426.376 180.551,425.331 180.551,424.094C180.551,420.787 183.538,418.92 189.511,418.494L189.511,417.566C189.511,416.371 189.341,415.523 188.999,415.022C188.658,414.52 188.093,414.27 187.303,414.27C186.173,414.27 184.658,414.952 182.759,416.318L181.799,414.782C183.357,413.758 184.535,413.075 185.335,412.734C186.135,412.392 186.983,412.222 187.879,412.222C189.287,412.222 190.311,412.606 190.951,413.376C191.591,414.146 191.911,415.375 191.911,417.064C191.911,417.15 191.89,417.577 191.847,418.347L191.719,424.056C191.677,425.83 192.018,426.718 192.743,426.718C192.999,426.718 193.415,426.504 193.991,426.078L194.663,427.408ZM189.511,424.414L189.511,419.998C187.453,420.36 186.027,420.702 185.234,421.022C183.776,421.619 183.047,422.6 183.047,423.966C183.047,424.712 183.294,425.336 183.787,425.838C184.28,426.339 184.891,426.59 185.62,426.59C186.756,426.59 188.053,425.864 189.511,424.414Z" style="fill-rule:nonzero;stroke:black;stroke-width:1px;stroke-linecap:butt;stroke-linejoin:round;stroke-miterlimit:1.41421;"/>
                <path d="M204.743,412.673L204.031,414.91C203.664,414.782 203.373,414.718 203.157,414.718C201.712,414.718 200.374,415.84 199.144,418.086L199.079,428.062L196.647,428.062L196.647,412.702L199.239,412.702L199.079,416.03C200.295,413.619 201.714,412.414 203.335,412.414C203.677,412.414 204.146,412.5 204.743,412.673Z" style="fill-rule:nonzero;stroke:black;stroke-width:1px;stroke-linecap:butt;stroke-linejoin:round;stroke-miterlimit:1.41421;"/>
                <path d="M218.151,420.126L207.911,420.126C207.89,420.254 207.879,420.403 207.879,420.574C207.879,422.323 208.285,423.752 209.095,424.862C209.906,425.971 210.951,426.526 212.231,426.526C213.639,426.526 215.101,425.8 216.615,424.35L217.863,425.694C216.733,426.76 215.741,427.496 214.887,427.902C214.034,428.307 213.053,428.51 211.943,428.51C210.002,428.51 208.413,427.79 207.175,426.35C205.938,424.91 205.319,423.059 205.319,420.798C205.319,418.323 205.981,416.28 207.303,414.67C208.626,413.059 210.301,412.254 212.327,412.254C216.167,412.254 218.109,414.878 218.151,420.126ZM215.655,418.398C215.335,415.518 214.226,414.078 212.327,414.078C210.237,414.078 208.839,415.518 208.135,418.398L215.655,418.398Z" style="fill-rule:nonzero;stroke:black;stroke-width:1px;stroke-linecap:butt;stroke-linejoin:round;stroke-miterlimit:1.41421;"/>
                <path d="M244.071,419.998C244.071,422.408 243.421,424.43 242.119,426.062C240.818,427.694 239.218,428.51 237.319,428.51C235.741,428.51 234.301,427.784 232.999,426.334L233.159,428.062L230.631,428.062L230.726,404.862L233.159,404.862L233.159,414.878C234.29,413.107 235.805,412.222 237.703,412.222C239.559,412.222 241.085,412.952 242.279,414.414C243.474,415.875 244.071,417.736 244.071,419.998ZM241.447,420.158C241.447,418.43 241.065,417.027 240.3,415.95C239.535,414.872 238.536,414.334 237.303,414.334C235.773,414.334 234.392,415.304 233.159,417.246L233.159,423.902C234.201,425.651 235.433,426.526 236.857,426.526C238.153,426.526 239.242,425.918 240.124,424.702C241.006,423.486 241.447,421.971 241.447,420.158Z" style="fill-rule:nonzero;stroke:black;stroke-width:1px;stroke-linecap:butt;stroke-linejoin:round;stroke-miterlimit:1.41421;"/>
                <path d="M259.143,412.926L252.199,430.43C251.474,432.243 250.743,433.539 250.007,434.318C249.271,435.096 247.751,435.496 245.447,435.518L245.447,433.694C246.663,433.672 247.49,433.539 247.927,433.294C248.365,433.048 248.775,432.488 249.159,431.614L250.791,427.838L245.095,412.926L247.671,412.226L251.315,422.393C251.698,423.44 252.007,424.593 252.241,425.854C252.454,424.467 252.721,423.315 253.04,422.398L256.715,412.222L259.143,412.926Z" style="fill-rule:nonzero;stroke:black;stroke-width:1px;stroke-linecap:butt;stroke-linejoin:round;stroke-miterlimit:1.41421;"/>
            </g>
            <g transform="matrix(0.4966,0,0,0.530855,65.3445,234.191)">
                <path d="M130.554,426.908L127.287,429.022L124.119,424.51C123.575,423.742 122.263,421.998 120.183,419.278C118.369,416.878 117.096,415.438 116.364,414.958C115.632,414.478 114.358,414.238 112.544,414.238L111.207,414.238L111.207,428.062L107.127,428.062L107.271,396.094C110.471,395.966 112.935,395.902 114.663,395.902C118.759,395.902 121.655,396.478 123.351,397.63C125.815,399.296 127.047,401.73 127.047,404.932C127.047,407.205 126.327,409.086 124.887,410.575C123.447,412.064 121.463,413 118.935,413.385C120.273,413.929 121.435,414.809 122.423,416.026C122.811,416.471 123.732,417.616 125.187,419.461C126.173,420.745 126.873,421.676 127.287,422.254L130.554,426.908ZM123.015,405.07C123.015,402.19 121.65,400.286 118.919,399.358C117.955,399.038 116.332,398.878 114.051,398.878L111.207,398.878L111.207,411.262L114.135,411.262C116.855,411.262 118.839,410.942 120.087,410.302C122.039,409.31 123.015,407.566 123.015,405.07Z" style="fill-rule:nonzero;stroke:black;stroke-width:1px;stroke-linecap:butt;stroke-linejoin:round;stroke-miterlimit:1.41421;"/>
                <path d="M154.599,427.081C152.903,428.119 151.559,428.638 150.567,428.638C148.295,428.638 147.159,427.455 147.159,425.09L147.159,424.75C145.047,427.406 142.583,428.734 139.767,428.734C137.975,428.734 136.471,428.094 135.255,426.814C134.039,425.534 133.431,423.966 133.431,422.11C133.431,417.15 137.911,414.35 146.871,413.71L146.871,412.318C146.871,410.526 146.615,409.254 146.103,408.502C145.591,407.75 144.743,407.374 143.559,407.374C141.863,407.374 139.591,408.398 136.743,410.446L135.303,408.142C137.639,406.606 139.407,405.582 140.607,405.07C141.807,404.558 143.079,404.302 144.423,404.302C146.535,404.302 148.071,404.879 149.031,406.033C149.991,407.188 150.471,409.032 150.471,411.565C150.471,411.694 150.439,412.335 150.375,413.49L150.183,422.053C150.119,424.715 150.631,426.046 151.719,426.046C152.103,426.046 152.727,425.726 153.591,425.086L154.599,427.081ZM146.871,422.59L146.871,415.966C143.784,416.51 141.645,417.022 140.456,417.502C138.269,418.398 137.175,419.87 137.175,421.918C137.175,423.038 137.545,423.974 138.285,424.726C139.025,425.478 139.941,425.854 141.034,425.854C142.739,425.854 144.684,424.766 146.871,422.59Z" style="fill-rule:nonzero;stroke:black;stroke-width:1px;stroke-linecap:butt;stroke-linejoin:round;stroke-miterlimit:1.41421;"/>
                <path d="M161.943,393.262L161.799,428.062L158.055,428.062L158.199,393.262L161.943,393.262Z" style="fill-rule:nonzero;stroke:black;stroke-width:1px;stroke-linecap:butt;stroke-linejoin:round;stroke-miterlimit:1.41421;"/>
                <path d="M180.183,395.902L179.184,395.902C177.406,395.902 176.12,396.462 175.326,397.582C174.532,398.702 174.135,400.558 174.135,403.15L174.135,405.166L180.183,405.166L180.183,407.902L174.135,407.902L174.135,428.062L170.343,428.062L170.343,407.902L165.927,407.902L165.927,405.166L170.343,405.166L170.343,403.158C170.343,396.56 173.114,393.262 178.655,393.262L180.183,393.262L180.183,395.902Z" style="fill-rule:nonzero;stroke:black;stroke-width:1px;stroke-linecap:butt;stroke-linejoin:round;stroke-miterlimit:1.41421;"/>
                <path d="M221.802,426.908L218.535,429.022L215.367,424.51C214.823,423.742 213.511,421.998 211.431,419.278C209.617,416.878 208.344,415.438 207.612,414.958C206.88,414.478 205.606,414.238 203.792,414.238L202.455,414.238L202.455,428.062L198.375,428.062L198.519,396.094C201.719,395.966 204.183,395.902 205.911,395.902C210.007,395.902 212.903,396.478 214.599,397.63C217.063,399.296 218.295,401.73 218.295,404.932C218.295,407.205 217.575,409.086 216.135,410.575C214.695,412.064 212.711,413 210.183,413.385C211.521,413.929 212.683,414.809 213.671,416.026C214.059,416.471 214.98,417.616 216.435,419.461C217.421,420.745 218.121,421.676 218.535,422.254L221.802,426.908ZM214.263,405.07C214.263,402.19 212.898,400.286 210.167,399.358C209.203,399.038 207.58,398.878 205.299,398.878L202.455,398.878L202.455,411.262L205.383,411.262C208.103,411.262 210.087,410.942 211.335,410.302C213.287,409.31 214.263,407.566 214.263,405.07Z" style="fill-rule:nonzero;stroke:black;stroke-width:1px;stroke-linecap:butt;stroke-linejoin:round;stroke-miterlimit:1.41421;"/>
                <path d="M243.159,416.158L227.799,416.158C227.767,416.35 227.751,416.574 227.751,416.83C227.751,419.454 228.359,421.598 229.575,423.262C230.791,424.926 232.359,425.758 234.279,425.758C236.391,425.758 238.583,424.67 240.855,422.494L242.727,424.51C241.031,426.11 239.543,427.214 238.263,427.822C236.983,428.43 235.511,428.734 233.847,428.734C230.935,428.734 228.551,427.654 226.695,425.494C224.839,423.334 223.911,420.558 223.911,417.166C223.911,413.454 224.903,410.39 226.887,407.974C228.871,405.558 231.383,404.35 234.423,404.35C240.183,404.35 243.095,408.286 243.159,416.158ZM239.415,413.566C238.935,409.246 237.271,407.086 234.423,407.086C231.287,407.086 229.191,409.246 228.135,413.566L239.415,413.566Z" style="fill-rule:nonzero;stroke:black;stroke-width:1px;stroke-linecap:butt;stroke-linejoin:round;stroke-miterlimit:1.41421;"/>
                <path d="M266.798,426.931L263.943,429.214L252.135,416.206L252.135,428.062L248.439,428.062L248.583,393.262L252.327,393.262L252.135,416.238L264.102,403.931L266.583,406.27L256.831,416.022L266.798,426.931Z" style="fill-rule:nonzero;stroke:black;stroke-width:1px;stroke-linecap:butt;stroke-linejoin:round;stroke-miterlimit:1.41421;"/>
                <path d="M286.023,400.078L281.991,400.078L281.991,395.902L286.023,395.902L286.023,400.078ZM277.815,400.078L273.783,400.078L273.783,395.902L277.815,395.902L277.815,400.078ZM290.583,416.35C290.583,420.03 289.535,423.014 287.439,425.302C285.343,427.59 282.599,428.734 279.207,428.734C276.007,428.734 273.439,427.614 271.503,425.374C269.567,423.134 268.599,420.174 268.599,416.494C268.599,412.878 269.647,409.942 271.743,407.686C273.839,405.43 276.583,404.302 279.975,404.302C283.111,404.302 285.663,405.414 287.631,407.638C289.599,409.862 290.583,412.766 290.583,416.35ZM286.647,416.158C286.647,413.534 285.999,411.382 284.703,409.702C283.407,408.022 281.751,407.182 279.735,407.182C277.623,407.182 275.895,408.054 274.551,409.798C273.207,411.542 272.535,413.79 272.535,416.542C272.535,419.326 273.167,421.558 274.431,423.238C275.695,424.918 277.383,425.758 279.495,425.758C281.607,425.758 283.327,424.87 284.655,423.094C285.983,421.318 286.647,419.006 286.647,416.158Z" style="fill-rule:nonzero;stroke:black;stroke-width:1px;stroke-linecap:butt;stroke-linejoin:round;stroke-miterlimit:1.41421;"/>
                <path d="M314.583,412.75L314.583,428.062L310.695,428.062L310.695,414.094C310.695,411.726 310.519,410.19 310.165,409.486C309.555,408.238 308.43,407.614 306.79,407.614C305.666,407.614 304.589,407.902 303.561,408.478C302.532,409.054 301.246,410.094 299.703,411.598L299.655,428.062L296.055,428.062L296.055,405.022L299.847,405.022L299.655,408.862C302.462,405.854 305.285,404.35 308.124,404.35C310.803,404.35 312.685,405.438 313.77,407.614C314.312,408.734 314.583,410.446 314.583,412.75Z" style="fill-rule:nonzero;stroke:black;stroke-width:1px;stroke-linecap:butt;stroke-linejoin:round;stroke-miterlimit:1.41421;"/>
                <path d="M340.455,393.262L340.311,428.062L336.519,428.062L336.951,424.318C335.351,427.294 332.951,428.782 329.751,428.782C326.935,428.782 324.615,427.678 322.791,425.47C320.967,423.262 320.055,420.462 320.055,417.07C320.055,413.486 321.055,410.462 323.055,407.998C325.055,405.534 327.511,404.302 330.423,404.302C332.983,404.302 335.047,405.422 336.615,407.662L336.615,393.262L340.455,393.262ZM336.615,421.246L336.615,411.358C335.106,408.766 333.243,407.47 331.026,407.47C328.97,407.47 327.284,408.366 325.967,410.158C324.65,411.95 323.991,414.254 323.991,417.07C323.991,419.566 324.602,421.654 325.823,423.334C327.043,425.014 328.553,425.854 330.351,425.854C332.664,425.854 334.752,424.318 336.615,421.246Z" style="fill-rule:nonzero;stroke:black;stroke-width:1px;stroke-linecap:butt;stroke-linejoin:round;stroke-miterlimit:1.41421;"/>
                <path d="M359.223,426.286C357.13,427.662 355.211,428.35 353.467,428.35C351.627,428.35 350.263,427.646 349.375,426.238C348.773,425.278 348.471,423.598 348.471,421.198L348.471,407.71L344.343,407.71L344.343,405.07L348.471,405.07L348.471,396.334L352.263,396.334L352.263,405.07L358.455,405.07L358.455,407.71L352.263,407.71L352.263,421.198C352.263,424.014 353.005,425.422 354.489,425.422C355.278,425.422 356.477,424.942 358.087,423.982L359.223,426.286Z" style="fill-rule:nonzero;stroke:black;stroke-width:1px;stroke-linecap:butt;stroke-linejoin:round;stroke-miterlimit:1.41421;"/>
            </g>
            <g transform="matrix(0.935619,0,0,1.00016,246.6,14.5109)">
                <path d="M-194.534,119.871L-191.264,115.412L-198.547,111.747C-194.319,107.85 -192.206,103.259 -192.206,97.975C-192.206,95.498 -192.643,93.17 -193.519,90.99C-194.394,88.81 -195.64,86.911 -197.259,85.293C-198.877,83.675 -200.817,82.411 -203.079,81.503C-205.342,80.595 -207.843,80.141 -210.585,80.141C-213.095,80.141 -215.472,80.595 -217.718,81.503C-219.964,82.411 -221.929,83.683 -223.613,85.318C-225.298,86.953 -226.61,88.852 -227.552,91.015C-228.493,93.178 -228.963,95.498 -228.963,97.975C-228.963,100.518 -228.501,102.887 -227.576,105.084C-226.652,107.28 -225.355,109.179 -223.688,110.781C-222.02,112.382 -220.063,113.621 -217.817,114.496C-215.571,115.371 -213.161,115.809 -210.585,115.809C-209.561,115.809 -208.463,115.718 -207.29,115.536C-206.118,115.355 -204.97,115.082 -203.847,114.719L-194.534,119.871ZM-222.325,97.975C-222.325,96.059 -221.995,94.309 -221.334,92.724C-220.674,91.139 -219.774,89.793 -218.635,88.686C-217.495,87.58 -216.232,86.738 -214.845,86.16C-213.458,85.582 -212.038,85.293 -210.585,85.293C-208.867,85.293 -207.274,85.607 -205.804,86.234C-204.334,86.862 -203.088,87.745 -202.064,88.885C-201.04,90.024 -200.248,91.37 -199.686,92.922C-199.125,94.474 -198.844,96.158 -198.844,97.975C-198.844,99.659 -199.125,101.269 -199.686,102.805C-200.248,104.341 -201.048,105.695 -202.089,106.867C-203.129,108.039 -204.376,108.964 -205.829,109.641C-207.282,110.318 -208.867,110.657 -210.585,110.657C-212.335,110.657 -213.937,110.351 -215.39,109.74C-216.843,109.129 -218.081,108.262 -219.105,107.14C-220.129,106.017 -220.922,104.671 -221.483,103.102C-222.045,101.533 -222.325,99.824 -222.325,97.975Z" style="fill-rule:nonzero;"/>
                <path d="M-188.342,115.115L-168.576,115.115L-168.576,109.666L-182.001,109.666L-181.704,80.835L-188.044,80.835L-188.342,115.115Z" style="fill-rule:nonzero;"/>
                <rect x="-168.571" y="93.782" width="9.382" height="9.382" style="fill-rule:nonzero;"/>
                <path d="M-156.266,113.183C-153.293,114.934 -150.189,115.809 -146.952,115.809C-145.301,115.809 -143.782,115.545 -142.395,115.016C-141.008,114.488 -139.802,113.753 -138.779,112.812C-137.755,111.87 -136.97,110.772 -136.425,109.517C-135.881,108.262 -135.608,106.908 -135.608,105.455C-135.608,104.002 -135.848,102.739 -136.326,101.666C-136.805,100.592 -137.441,99.684 -138.234,98.941C-139.026,98.198 -139.877,97.587 -140.785,97.108C-141.693,96.629 -142.791,96.092 -144.079,95.498C-146.094,94.606 -147.58,93.781 -148.538,93.021C-149.495,92.261 -149.974,91.221 -149.974,89.9C-149.974,88.447 -149.429,87.316 -148.34,86.507C-147.25,85.698 -145.929,85.293 -144.376,85.293C-143.32,85.293 -142.345,85.466 -141.454,85.813C-140.562,86.16 -139.489,86.68 -138.234,87.374L-137.887,87.572L-135.212,83.014C-136.797,82.123 -138.399,81.421 -140.017,80.909C-141.635,80.397 -143.254,80.141 -144.872,80.141C-146.556,80.141 -148.108,80.389 -149.528,80.884C-150.949,81.379 -152.162,82.081 -153.17,82.989C-154.177,83.898 -154.953,84.963 -155.498,86.185C-156.043,87.407 -156.315,88.711 -156.315,90.098C-156.315,91.683 -156.076,93.038 -155.597,94.16C-155.118,95.283 -154.482,96.216 -153.69,96.959C-152.897,97.702 -152.071,98.305 -151.213,98.768C-150.354,99.23 -149.248,99.758 -147.894,100.353C-145.945,101.178 -144.517,101.946 -143.609,102.656C-142.7,103.366 -142.246,104.382 -142.246,105.703C-142.246,107.123 -142.742,108.304 -143.732,109.245C-144.723,110.186 -146.061,110.657 -147.745,110.657C-148.604,110.657 -149.603,110.426 -150.742,109.963C-151.882,109.501 -152.897,108.956 -153.789,108.328L-156.266,113.183Z" style="fill-rule:nonzero;"/>
                <path d="M-117.229,107.883C-118.088,108.774 -118.897,109.46 -119.657,109.938C-120.416,110.417 -121.308,110.657 -122.332,110.657C-123.884,110.657 -125.164,109.93 -126.171,108.477C-127.178,107.024 -127.682,105.026 -127.682,102.483C-127.682,100.402 -127.187,98.569 -126.196,96.984C-125.205,95.399 -123.818,94.606 -122.034,94.606C-121.11,94.606 -120.284,94.796 -119.558,95.176C-118.831,95.556 -117.989,96.142 -117.031,96.935L-116.982,96.984L-113.563,93.665C-114.752,92.344 -116.065,91.312 -117.502,90.569C-118.938,89.826 -120.532,89.454 -122.282,89.454C-124.066,89.454 -125.692,89.826 -127.162,90.569C-128.631,91.312 -129.878,92.327 -130.902,93.615C-131.926,94.903 -132.702,96.357 -133.23,97.975C-133.759,99.593 -134.023,101.277 -134.023,103.028C-134.023,104.58 -133.783,106.116 -133.305,107.635C-132.826,109.154 -132.132,110.533 -131.224,111.771C-130.316,113.01 -129.176,113.992 -127.806,114.719C-126.435,115.446 -124.891,115.809 -123.174,115.809C-121.258,115.809 -119.541,115.404 -118.022,114.595C-116.503,113.786 -115.116,112.605 -113.861,111.053L-117.229,107.883Z" style="fill-rule:nonzero;"/>
                <path d="M-113.068,115.115L-106.975,115.115L-106.826,99.659C-106.166,98.272 -105.406,97.199 -104.547,96.439C-103.689,95.68 -102.698,95.3 -101.575,95.3C-101.278,95.3 -100.799,95.366 -100.138,95.498L-99.148,89.702C-99.808,89.537 -100.403,89.454 -100.931,89.454C-102.351,89.487 -103.499,89.974 -104.374,90.916C-105.249,91.857 -106.034,93.153 -106.727,94.804L-106.777,94.705L-106.777,90.148L-112.82,90.148L-113.068,115.115Z" style="fill-rule:nonzero;"/>
                <path d="M-78.787,103.375C-78.787,98.916 -79.646,95.481 -81.363,93.071C-83.081,90.66 -85.657,89.454 -89.091,89.454C-90.842,89.454 -92.427,89.826 -93.847,90.569C-95.267,91.312 -96.473,92.311 -97.463,93.566C-98.454,94.821 -99.205,96.241 -99.717,97.826C-100.229,99.412 -100.485,101.046 -100.485,102.731C-100.485,104.646 -100.221,106.413 -99.693,108.031C-99.164,109.649 -98.405,111.037 -97.414,112.192C-96.423,113.348 -95.259,114.24 -93.921,114.868C-92.584,115.495 -91.139,115.809 -89.587,115.809C-87.638,115.809 -85.805,115.371 -84.088,114.496C-82.371,113.621 -80.818,112.424 -79.431,110.904L-82.899,107.734C-83.824,108.725 -84.748,109.509 -85.673,110.087C-86.598,110.665 -87.605,110.954 -88.695,110.954C-89.686,110.954 -90.544,110.731 -91.271,110.285C-91.998,109.839 -92.592,109.245 -93.054,108.502C-93.517,107.759 -93.855,106.95 -94.07,106.074C-94.285,105.199 -94.408,104.299 -94.441,103.375L-78.787,103.375ZM-94.144,99.114C-94.012,97.793 -93.459,96.563 -92.485,95.424C-91.51,94.284 -90.379,93.715 -89.091,93.715C-87.605,93.715 -86.499,94.235 -85.772,95.275C-85.046,96.315 -84.633,97.595 -84.534,99.114L-94.144,99.114Z" style="fill-rule:nonzero;"/>
                <path d="M-56.495,103.375C-56.495,98.916 -57.354,95.481 -59.071,93.071C-60.788,90.66 -63.364,89.454 -66.799,89.454C-68.549,89.454 -70.134,89.826 -71.555,90.569C-72.975,91.312 -74.18,92.311 -75.171,93.566C-76.162,94.821 -76.913,96.241 -77.425,97.826C-77.937,99.412 -78.193,101.046 -78.193,102.731C-78.193,104.646 -77.929,106.413 -77.4,108.031C-76.872,109.649 -76.112,111.037 -75.121,112.192C-74.131,113.348 -72.966,114.24 -71.629,114.868C-70.291,115.495 -68.846,115.809 -67.294,115.809C-65.346,115.809 -63.513,115.371 -61.795,114.496C-60.078,113.621 -58.526,112.424 -57.139,110.904L-60.607,107.734C-61.531,108.725 -62.456,109.509 -63.381,110.087C-64.305,110.665 -65.313,110.954 -66.403,110.954C-67.393,110.954 -68.252,110.731 -68.979,110.285C-69.705,109.839 -70.3,109.245 -70.762,108.502C-71.224,107.759 -71.563,106.95 -71.778,106.074C-71.992,105.199 -72.116,104.299 -72.149,103.375L-56.495,103.375ZM-71.852,99.114C-71.72,97.793 -71.167,96.563 -70.192,95.424C-69.218,94.284 -68.087,93.715 -66.799,93.715C-65.313,93.715 -64.206,94.235 -63.48,95.275C-62.753,96.315 -62.34,97.595 -62.241,99.114L-71.852,99.114Z" style="fill-rule:nonzero;"/>
                <path d="M-54.464,115.115L-48.42,115.115L-48.321,98.173C-47.363,97.215 -46.422,96.431 -45.497,95.82C-44.573,95.209 -43.681,94.903 -42.822,94.903C-41.567,94.903 -40.709,95.209 -40.246,95.82C-39.784,96.431 -39.553,97.513 -39.553,99.065C-39.553,100.815 -39.569,103.358 -39.602,106.694C-39.635,107.42 -39.652,108.147 -39.652,108.873L-39.701,115.115L-33.658,115.115L-33.509,102.582C-33.509,102.153 -33.509,101.426 -33.509,100.402C-33.476,99.114 -33.459,97.975 -33.459,96.984C-33.459,95.927 -33.567,94.961 -33.781,94.086C-33.996,93.211 -34.351,92.427 -34.846,91.733C-35.342,91.039 -36.027,90.486 -36.902,90.073C-37.777,89.661 -38.843,89.454 -40.098,89.454C-41.683,89.454 -43.169,89.784 -44.556,90.445C-45.943,91.106 -47.149,92.014 -48.172,93.17L-48.271,93.17L-48.271,90.148L-54.216,90.148L-54.464,115.115Z" style="fill-rule:nonzero;"/>
                <path d="M-17.607,115.115L1.069,115.115L1.069,109.666L-11.117,109.666L-11.068,100.254L0.871,100.254L0.871,95.102L-11.018,95.102L-10.919,86.284L1.069,86.284L1.069,80.835L-17.26,80.835L-17.607,115.115Z" style="fill-rule:nonzero;"/>
                <path d="M19.497,115.115L25.293,115.115L25.442,77.961L19.398,77.961L19.25,91.931L19.151,91.931C18.523,91.106 17.714,90.503 16.723,90.123C15.733,89.743 14.692,89.553 13.602,89.553C11.918,89.553 10.399,89.925 9.045,90.668C7.691,91.411 6.543,92.418 5.602,93.69C4.661,94.961 3.951,96.398 3.472,98C2.993,99.601 2.753,101.261 2.753,102.978C2.753,104.828 3.009,106.529 3.521,108.081C4.033,109.633 4.76,110.979 5.701,112.118C6.642,113.258 7.749,114.141 9.02,114.768C10.292,115.396 11.687,115.71 13.206,115.71C14.428,115.71 15.609,115.396 16.748,114.768C17.887,114.141 18.771,113.348 19.398,112.391L19.497,112.391L19.497,115.115ZM19.151,106.644C18.986,107.701 18.457,108.617 17.565,109.394C16.674,110.17 15.749,110.558 14.791,110.558C13.041,110.558 11.604,109.823 10.481,108.353C9.359,106.884 8.797,104.993 8.797,102.681C8.797,100.303 9.4,98.379 10.605,96.91C11.811,95.44 13.256,94.705 14.94,94.705C15.898,94.705 16.723,94.928 17.417,95.374C18.11,95.82 18.688,96.357 19.151,96.984L19.151,106.644Z" style="fill-rule:nonzero;"/>
                <path d="M29.702,115.115L35.746,115.115L35.994,90.148L29.95,90.148L29.702,115.115ZM29.95,86.68L35.994,86.68L36.043,80.835L30,80.835L29.95,86.68Z" style="fill-rule:nonzero;"/>
                <path d="M52.391,110.062C51.83,110.459 51.343,110.756 50.93,110.954C50.517,111.152 50.079,111.251 49.617,111.251C48.89,111.251 48.37,111.028 48.057,110.582C47.743,110.137 47.586,109.484 47.586,108.626C47.586,105.885 47.602,103.688 47.635,102.037L47.784,94.705L53.332,94.705L53.332,90.148L47.784,90.247L47.982,81.33L41.938,81.33L41.74,90.247L38.372,90.148L38.372,94.705L41.74,94.705L41.592,102.334C41.559,103.787 41.542,105.785 41.542,108.328C41.542,110.904 42.137,112.795 43.326,114.001C44.514,115.206 46.182,115.809 48.329,115.809C48.89,115.809 49.485,115.743 50.112,115.611C50.74,115.479 51.4,115.214 52.094,114.818L54.125,113.728L52.391,110.062Z" style="fill-rule:nonzero;"/>
                <path d="M53.134,102.632C53.134,104.448 53.382,106.149 53.877,107.734C54.373,109.319 55.116,110.715 56.107,111.92C57.097,113.125 58.344,114.075 59.847,114.768C61.349,115.462 63.091,115.809 65.073,115.809C66.922,115.809 68.59,115.462 70.076,114.768C71.563,114.075 72.818,113.117 73.841,111.895C74.865,110.673 75.65,109.27 76.194,107.684C76.739,106.099 77.012,104.415 77.012,102.632C77.012,98.768 75.98,95.605 73.916,93.145C71.852,90.684 68.904,89.454 65.073,89.454C63.29,89.454 61.663,89.818 60.193,90.544C58.724,91.271 57.461,92.261 56.404,93.516C55.347,94.771 54.538,96.191 53.976,97.777C53.415,99.362 53.134,100.98 53.134,102.632ZM59.178,102.83C59.178,101.905 59.277,100.947 59.475,99.956C59.673,98.966 60.004,98.041 60.466,97.182C60.928,96.324 61.548,95.63 62.324,95.102C63.1,94.573 64.016,94.309 65.073,94.309C67.055,94.309 68.532,95.06 69.507,96.563C70.481,98.066 70.968,100.155 70.968,102.83C70.968,103.754 70.861,104.687 70.646,105.629C70.431,106.57 70.093,107.445 69.631,108.254C69.168,109.063 68.549,109.716 67.773,110.211C66.997,110.706 66.097,110.954 65.073,110.954C64.016,110.954 63.1,110.69 62.324,110.161C61.548,109.633 60.928,108.948 60.466,108.106C60.004,107.263 59.673,106.38 59.475,105.455C59.277,104.53 59.178,103.655 59.178,102.83Z" style="fill-rule:nonzero;"/>
                <path d="M79.637,115.115L85.731,115.115L85.879,99.659C86.54,98.272 87.299,97.199 88.158,96.439C89.017,95.68 90.007,95.3 91.13,95.3C91.428,95.3 91.906,95.366 92.567,95.498L93.558,89.702C92.897,89.537 92.303,89.454 91.774,89.454C90.354,89.487 89.207,89.974 88.331,90.916C87.456,91.857 86.672,93.153 85.978,94.804L85.929,94.705L85.929,90.148L79.885,90.148L79.637,115.115Z" style="fill-rule:nonzero;"/>
            </g>
            <g transform="matrix(0.4966,0,0,0.530855,0.17971,8.53908)">
                <path d="M620.346,422.228L612.82,443.301L591.748,428.46L597.567,415.655L607.041,417.183L615.584,418.931L620.346,422.228Z" style="fill:white;"/>
            </g>
            <g transform="matrix(1.6682,0,0,1.78327,-65.1445,110.899)">
                <path d="M125.57,27.3C128.66,37.2 127.49,46.7 127.57,57C127.39,64.75 128.21,73.09 126.59,80.59C125.68,84.98 124.69,89.35 123.92,93.77C132.64,95.24 141.25,96.71 150.12,97C149.41,87.4 146.81,78.6 145.05,69C143.39,59.93 141.33,50.96 139.95,41.84C142.82,41.17 145.69,40.56 148.58,40.01C149.61,43.25 150.63,46.46 151.26,49.81L151.35,51.85L149.47,50.68C149.25,48.49 149.03,46.3 148.82,44.1C146.54,44.15 144.27,44.2 142,44.27C142.46,53.29 144.75,61.65 146.47,70.47C148.54,79.81 150.2,89.23 152.26,98.58C153.43,98.84 154.59,99.1 155.76,99.37C155.01,99.68 154.26,99.98 153.51,100.29C153.85,100.51 154.19,100.74 154.54,100.96C154.01,103.35 153.81,105.77 153.69,108.22C156.13,107.89 158.57,107.55 160.99,107.17C159.78,104.08 158.42,101.16 158.11,97.84C158.72,84.08 151.96,70.82 152.48,56.8C154.62,68.85 157.48,80.76 159.41,92.83C162.83,93.02 166.24,93.18 169.66,93.29C169.36,88.81 169.48,84.53 171.19,80.31C174.79,71.1 178.04,61.78 181.48,52.52C182.83,48.71 185.29,45.76 188.02,42.87C192.04,44.09 195.86,45.54 199.62,47.4C199.48,51.08 199.42,54.6 198.14,58.11C196.47,62.72 194.41,67.17 192.84,71.82C189.86,79.85 187.55,87.87 182.84,94.9C185.68,97.49 188.59,100.13 191.02,103.11C193.11,105.68 194.25,109.09 195.55,112.13C195.91,111.35 196.27,110.58 196.62,109.8C196,114.93 194.56,117.67 191.31,121.63C189.67,115.07 188.03,108.47 185.94,102.05C185.27,99.81 183.97,98.2 182.27,96.66C180.42,98.58 178.66,100.58 176.89,102.56C178.84,102.88 180.78,103.19 182.72,103.55C179.86,103.85 177,104.03 174.12,104.22C173.75,105.4 173.36,106.57 172.97,107.74C176.53,108 180.09,108.26 183.65,108.5L183.55,109.66C176.47,108.94 169.4,108.37 162.28,108.64C162.21,109.75 162.13,110.87 162.05,111.98C169.77,112.36 177.98,112.09 185.41,113.98C178.55,114.45 171.86,112.98 165.04,113.06C161.85,112.74 161.41,116.01 159.86,118.09C165.57,118.08 170.96,117.66 176.59,118.96C171.15,119.43 165.67,119.08 160.18,119.22C160.51,120.75 160.84,122.28 161.17,123.8C170.29,124.06 180.65,122.9 189.31,125.75C181.5,125.96 173.79,124.49 165.95,125.04C161.43,125.13 157.37,126.55 153.12,127.87C154.95,126.6 156.79,125.34 158.65,124.1C158.48,123.08 158.31,122.05 158.14,121.03C156.38,121.23 154.63,121.43 152.88,121.62C154.42,120.65 155.97,119.71 157.52,118.77C155.99,116.98 154.11,115.47 153.7,113.06C152.64,107.86 152.32,102.76 149.96,97.88L149.15,100.01C147.71,104.67 148.16,110.15 148.05,115C148.06,128.34 146.25,141.24 148.37,154.54C152.77,151.17 156.55,149.65 162.15,149.34C170.05,149.01 177.16,147.72 184.89,149.05C190.17,149.92 195.27,150.27 200.63,150.1C198.8,142.19 196.82,133.35 192.05,126.62C191.16,128.43 190.3,130.24 189.47,132.07C190.17,132.24 190.87,132.4 191.57,132.56C191.3,134.55 191.02,136.54 190.81,138.54C182.36,138.1 174.47,137.01 165.96,137.92C161.7,138.38 158.08,139.88 153.87,140.83C156.46,139.17 159.07,137.73 162.16,137.28C170.3,136 178.85,136.35 187.06,136.76C187.43,135.29 187.79,133.82 188.16,132.35C181.12,131.82 174.03,131.15 166.96,131.2C162.2,131.23 158.23,132.9 153.64,133.83C156.31,132.11 159.05,130.72 162.26,130.41C170.94,129.47 179.98,130.52 188.7,130.94C189.42,128.08 190.16,125.2 191.06,122.4C192.38,123.2 193.72,124.02 195.04,124.84C196.17,120.9 197.54,117.06 199.36,113.38C206.17,99.91 211.8,85.91 218.95,72.59C217.84,71.98 216.71,71.35 215.57,70.79C214.2,72.26 212.89,73.79 211.69,75.4C213.45,71.71 214.86,67.45 217.19,64.1C218.57,62.45 219.71,60.53 222.09,61.88C225.53,63.17 223.477,65.821 223.827,68.741C221.227,67.031 220.89,65.96 217.58,67.31C216.88,67.4 216.51,67.83 216.46,68.6C216.78,70.29 219.31,70.62 220.7,70.97C221.19,71.64 221.67,72.3 222.16,72.97C220.3,77.1 218.22,81.11 216.09,85.1C212.21,92.38 209.17,100.04 205.37,107.36C203.22,111.82 200.59,116.26 199.14,121.01C198.43,123.3 199.45,125.55 200.2,127.69C202.71,134 205.38,140.07 207.32,146.61C209.34,153.69 211.59,160.52 212.19,167.91C207.8,168.2 203.41,168.41 199.01,168.33C186.69,167.58 174.43,168.4 162.11,168.2C164.65,167.27 167.23,166.62 169.96,166.59C183.02,166.58 196.17,167.26 209.21,166.48C195.86,165.81 182.38,166.53 169,166.19C164.07,166.03 159.84,166.59 155.17,168.12C155.8,168.73 156.42,169.33 157.05,169.93C153.35,170.66 149.57,171.19 145.8,171.31C140.56,171.41 136.12,169.27 131.01,169.05C127.67,168.91 124.25,169.38 120.92,169.68C108.7,170.79 96.34,170.25 84.14,171.5C83.9,163.37 86.92,156.85 89.24,149.27C91.65,141.51 93.82,133.67 95.95,125.83C96.78,122.38 97.93,118.77 96.81,115.26C95.71,111.86 94.11,108.1 91.49,105.59C90.34,104.35 88.2,105.93 86.89,106.24C82.57,99.75 80.25,92.82 77.36,85.6C75.38,80.62 77.94,76.3 76.67,71.29C76.33,69.81 75.88,68.34 75.45,66.89C76.9,66.49 78.35,66.1 79.8,65.71C84.18,72.72 88.27,79.87 91.47,87.51C94.35,94.42 97.36,101.22 100.58,107.98C104.68,102.3 110.42,97.7 115.86,93.35C116.59,85.16 114.91,77.22 116.14,69.11C117.97,56.57 117.56,44.98 121.7,32.75C122.43,30.5 123.94,28.94 125.57,27.3Z" style="fill:rgb(22,22,22);fill-rule:nonzero;"/>
                <path d="M124.94,29.62C125.9,34.37 126.18,39.17 126.16,44C126.14,53.97 126.09,63.94 125.82,73.9C122.83,73.93 119.84,73.96 116.85,73.96C117.53,67.63 118.47,61.35 118.87,54.99C119.55,46.01 120.41,37.61 124.94,29.62Z" style="fill:rgb(97,97,97);fill-rule:nonzero;"/>
                <path d="M142.99,42.29C143.79,41.35 146.22,41.23 147.05,42.18C147.52,43.73 142.52,43.82 142.99,42.29Z" style="fill:rgb(114,114,114);fill-rule:nonzero;"/>
                <path d="M148.82,44.1C149.03,46.3 149.25,48.49 149.47,50.68C149.71,58.99 151.45,67 153.06,75.12C154.61,82.76 157.03,90.08 158.11,97.84C158.42,101.16 159.78,104.08 160.99,107.17C158.57,107.55 156.13,107.89 153.69,108.22C153.81,105.77 154.01,103.35 154.54,100.96C154.19,100.74 153.85,100.51 153.51,100.29C154.26,99.98 155.01,99.68 155.76,99.37C154.59,99.1 153.43,98.84 152.26,98.58C150.2,89.23 148.54,79.81 146.47,70.47C144.75,61.65 142.46,53.29 142,44.27C144.27,44.2 146.54,44.15 148.82,44.1Z" style="fill:rgb(114,114,114);fill-rule:nonzero;"/>
                <path d="M198.18,52.18C196.27,59.59 192.98,66.41 190.58,73.65C188.67,79.36 186.38,84.88 183.81,90.32C179.21,89.36 175.12,87.95 170.9,85.91C172.36,81.17 174.05,76.51 175.86,71.9C179.03,63.76 181.43,54.84 185.48,47.19C190.16,47.76 194.2,49.78 198.18,52.18Z" style="fill:rgb(97,97,97);fill-rule:nonzero;"/>
                <path d="M151.26,49.81C151.75,52.12 152.18,54.45 152.48,56.8C151.96,70.82 158.72,84.08 158.11,97.84C157.03,90.08 154.61,82.76 153.06,75.12C151.45,67 149.71,58.99 149.47,50.68L151.35,51.85L151.26,49.81Z" style="fill:rgb(97,97,97);fill-rule:nonzero;"/>
                <path d="M187.09,52.16C189.63,52.64 192.14,54.06 194.38,55.32C191.74,54.86 189.12,54.34 186.47,53.95C186.66,53.35 186.87,52.75 187.09,52.16Z" style="fill:rgb(22,22,22);fill-rule:nonzero;"/>
                <path d="M186.47,53.95C189.12,54.34 191.74,54.86 194.38,55.32C190.73,63.74 187.14,72.15 184.65,81C184.07,82.06 183.47,83.12 182.86,84.17C180.8,83.44 178.75,82.72 176.7,81.98C178.35,76.11 180.15,70.27 182.26,64.55C184.02,61.08 185.41,57.71 186.47,53.95Z" style="fill:rgb(177,177,177);fill-rule:nonzero;"/>
                <path d="M221.48,63.53C222.23,64.35 222.93,65.21 223.59,66.11C221.78,65.35 220.01,64.52 218.27,63.6C219.34,63.51 220.41,63.49 221.48,63.53Z" style="fill:rgb(152,152,152);fill-rule:nonzero;"/>
                <path d="M182.26,64.55C180.15,70.27 178.35,76.11 176.7,81.98C178.75,82.72 180.8,83.44 182.86,84.17C183.47,83.12 184.07,82.06 184.65,81C184.18,82.66 183.75,84.33 183.29,86C180.56,84.96 177.82,83.9 175.1,82.83C177.23,76.9 178.31,69.49 182.26,64.55Z" style="fill:rgb(22,22,22);fill-rule:nonzero;"/>
                <path d="M77.12,67.37C77.87,67.39 78.63,67.42 79.39,67.48C80.28,68.91 81.1,70.38 81.94,71.84C80.88,72.26 79.82,72.68 78.77,73.1C78.17,71.19 77.54,69.33 77.12,67.37Z" style="fill:rgb(177,177,177);fill-rule:nonzero;"/>
                <path d="M215.57,70.79C216.71,71.35 217.84,71.98 218.95,72.59C211.8,85.91 206.17,99.91 199.36,113.38C197.54,117.06 196.17,120.9 195.04,124.84C193.72,124.02 192.38,123.2 191.06,122.4L191.31,121.63C194.56,117.67 196,114.93 196.62,109.8C198.84,101.76 202.84,94.83 206.07,87.2C207.78,83.19 209.62,79.24 211.69,75.4C212.89,73.79 214.2,72.26 215.57,70.79Z" style="fill:rgb(97,97,97);fill-rule:nonzero;"/>
                <path d="M83.67,75.11C88.6,83.22 92.06,92.3 95.56,101.1C94.06,101.9 92.56,102.69 91.06,103.48C87.92,97.98 85.38,92.2 82.39,86.62C80.59,83.25 79.12,79.75 77.85,76.16C79.79,75.77 81.71,75.39 83.67,75.11Z" style="fill:rgb(97,97,97);fill-rule:nonzero;"/>
                <path d="M116.63,78.36C119.63,78.12 122.53,78.16 125.53,78.44C122.19,79.25 119.95,79.23 116.63,78.36Z" style="fill:rgb(114,114,114);fill-rule:nonzero;"/>
                <path d="M77.14,80.6C78.91,80.19 78.96,82.84 77.17,82.5C76.38,81.88 76.37,81.25 77.14,80.6Z" style="fill:rgb(152,152,152);fill-rule:nonzero;"/>
                <path d="M118.21,80.23C120.44,80.28 122.7,80.66 124.91,80.97C124.16,85.31 123.62,89.92 122.07,94.06C121.54,95.89 119.66,96.59 118.23,97.66C117.15,92.16 116.28,85.62 118.21,80.23Z" style="fill:rgb(97,97,97);fill-rule:nonzero;"/>
                <path d="M79.96,86.97C82.6,92.2 85.1,97.6 86.77,103.21C83.37,98.29 81.38,92.74 79.96,86.97Z" style="fill:rgb(177,177,177);fill-rule:nonzero;"/>
                <path d="M169.6,87.57C174.4,88.44 178.92,90.17 183.29,92.31C178.19,92.03 173.61,90.9 169.6,87.57Z" style="fill:rgb(97,97,97);fill-rule:nonzero;"/>
                <path d="M181.01,93.93C180.27,95.24 179.54,96.56 178.77,97.85C176.86,97.39 174.95,96.93 173.02,96.57C172.35,95.21 171.67,93.86 171.03,92.48C173.85,90.55 178.07,93.15 181.01,93.93Z" style="fill:rgb(152,152,152);fill-rule:nonzero;"/>
                <path d="M160.27,95.06C163.09,94.94 165.97,95.21 168.79,95.4C169.09,97.7 169.4,100 169.7,102.3C166.73,102.3 163.75,102.29 160.77,102.28C160.54,99.9 160.23,97.45 160.27,95.06Z" style="fill:rgb(247,247,247);fill-rule:nonzero;"/>
                <path d="M116.77,95.95C117.29,101.83 116.62,105.49 113.76,110.57C115.16,111.05 116.55,111.54 117.94,112.03C117.92,112.87 117.89,113.7 117.87,114.53C115.82,114.91 113.77,115.31 111.73,115.78C117.56,115.88 123.21,115.29 129.04,115.74C133.42,116.08 137.75,116.73 142.16,116.67C134.4,114.24 127.1,114.84 119.14,114.07C120.44,112.57 120.71,110.57 123.05,110.72C129.41,110.46 135.87,111.87 142.27,111.76C135.96,109.61 129.89,109.9 123.33,109.75C123.09,108.33 122.85,106.9 122.59,105.47C129.35,105.43 135.87,106.89 142.56,107.35C135.6,104.74 128.79,104.93 121.49,104.12C121.87,101.35 122.35,98.59 122.86,95.84C130.44,96.53 139.32,96.42 146.35,99.47C144.87,106.76 144.57,114.49 144.09,121.97C143.65,128.66 144.34,135.36 143.89,142.05C143.66,144.53 143.25,147.5 141.33,149.29C139.88,150.53 137.7,151.06 135.9,151.57C123.26,150.32 110.79,149.57 98.08,149.93C99.83,143.18 101.33,136.32 103.39,129.68C104.93,131.8 106.48,133.92 108.04,136.04C107.14,137.01 106.24,137.98 105.34,138.96C112.99,138.53 120.36,138.05 128.03,138.87C132.51,139.36 136.93,140.01 141.46,139.92C131.84,136.93 120.88,137.14 110.9,137.5C110.44,135.98 109.98,134.46 109.53,132.95C115.72,132.56 121.85,132.26 128.04,132.85C132.53,133.28 136.96,133.92 141.49,133.84C131.57,130.72 119.73,131.5 109.42,131.75C108.81,130.14 108.19,128.54 107.62,126.91C107.04,124.88 106.4,122.85 105.89,120.8C107.86,112.7 110.71,104.86 112.76,96.77C114.09,96.46 115.43,96.21 116.77,95.95Z" style="fill:rgb(247,247,247);fill-rule:nonzero;"/>
                <path d="M170.13,96.07C171.09,96.23 172.06,96.39 173.02,96.57C174.95,96.93 176.86,97.39 178.77,97.85C177.91,99.13 176.93,100.77 175.54,101.49C174.14,101.93 172.65,102.13 171.21,102.39C170.83,100.28 170.47,98.18 170.13,96.07Z" style="fill:rgb(177,177,177);fill-rule:nonzero;"/>
                <path d="M182.27,96.66C183.97,98.2 185.27,99.81 185.94,102.05C188.03,108.47 189.67,115.07 191.31,121.63L191.06,122.4C190.16,125.2 189.42,128.08 188.7,130.94C179.98,130.52 170.94,129.47 162.26,130.41C159.05,130.72 156.31,132.11 153.64,133.83C158.23,132.9 162.2,131.23 166.96,131.2C174.03,131.15 181.12,131.82 188.16,132.35C187.79,133.82 187.43,135.29 187.06,136.76C178.85,136.35 170.3,136 162.16,137.28C159.07,137.73 156.46,139.17 153.87,140.83C158.08,139.88 161.7,138.38 165.96,137.92C174.47,137.01 182.36,138.1 190.81,138.54C191.02,136.54 191.3,134.55 191.57,132.56C190.87,132.4 190.17,132.24 189.47,132.07C190.3,130.24 191.16,128.43 192.05,126.62C196.82,133.35 198.8,142.19 200.63,150.1C195.27,150.27 190.17,149.92 184.89,149.05C177.16,147.72 170.05,149.01 162.15,149.34C158.86,149.27 154.62,149.16 151.83,147.21C150.3,146.2 150.3,143.69 150.09,142.06C149.61,132.39 150.44,122.65 149.78,112.99C149.49,108.58 148.82,104.46 149.15,100.01L149.96,97.88C152.32,102.76 152.64,107.86 153.7,113.06C154.11,115.47 155.99,116.98 157.52,118.77C155.97,119.71 154.42,120.65 152.88,121.62C154.63,121.43 156.38,121.23 158.14,121.03C158.31,122.05 158.48,123.08 158.65,124.1C156.79,125.34 154.95,126.6 153.12,127.87C157.37,126.55 161.43,125.13 165.95,125.04C173.79,124.49 181.5,125.96 189.31,125.75C180.65,122.9 170.29,124.06 161.17,123.8C160.84,122.28 160.51,120.75 160.18,119.22C165.67,119.08 171.15,119.43 176.59,118.96C170.96,117.66 165.57,118.08 159.86,118.09C161.41,116.01 161.85,112.74 165.04,113.06C171.86,112.98 178.55,114.45 185.41,113.98C177.98,112.09 169.77,112.36 162.05,111.98C162.13,110.87 162.21,109.75 162.28,108.64C169.4,108.37 176.47,108.94 183.55,109.66L183.65,108.5C180.09,108.26 176.53,108 172.97,107.74C173.36,106.57 173.75,105.4 174.12,104.22C177,104.03 179.86,103.85 182.72,103.55C180.78,103.19 178.84,102.88 176.89,102.56C178.66,100.58 180.42,98.58 182.27,96.66Z" style="fill:rgb(247,247,247);fill-rule:nonzero;"/>
                <path d="M118.6,98.15C119.61,97.09 121.27,98.15 120.52,99.49C119.51,100.56 117.85,99.48 118.6,98.15Z" style="fill:rgb(114,114,114);fill-rule:nonzero;"/>
                <path d="M146.35,99.47C146.25,117.58 145.16,135.6 146.3,153.7C142.86,152.82 139.43,151.99 135.9,151.57C137.7,151.06 139.88,150.53 141.33,149.29C143.25,147.5 143.66,144.53 143.89,142.05C144.34,135.36 143.65,128.66 144.09,121.97C144.57,114.49 144.87,106.76 146.35,99.47Z" style="fill:rgb(212,212,212);fill-rule:nonzero;"/>
                <path d="M149.15,100.01C148.82,104.46 149.49,108.58 149.78,112.99C150.44,122.65 149.61,132.39 150.09,142.06C150.3,143.69 150.3,146.2 151.83,147.21C154.62,149.16 158.86,149.27 162.15,149.34C156.55,149.65 152.77,151.17 148.37,154.54C146.25,141.24 148.06,128.34 148.05,115C148.16,110.15 147.71,104.67 149.15,100.01Z" style="fill:rgb(212,212,212);fill-rule:nonzero;"/>
                <path d="M118.42,101.8C118.58,104.13 118.68,106.46 118.82,108.79C119.55,106.48 120.18,104.15 120.9,101.83C121.11,103.78 121.49,105.8 121.35,107.76C120.84,109.39 119.69,110.84 118.81,112.29C118.2,110.86 117.44,109.39 117.12,107.86C117.23,105.82 117.9,103.77 118.42,101.8Z" style="fill:rgb(247,247,247);fill-rule:nonzero;"/>
                <path d="M96.69,103.18C98.72,107.3 100.39,111.56 102.18,115.79C102.99,117.79 104.34,119.34 105.89,120.8C106.4,122.85 107.04,124.88 107.62,126.91C107.67,128.98 107.6,131.06 107.54,133.12C101.07,124.75 97.74,113.67 93.19,104.02C94.36,103.75 95.52,103.47 96.69,103.18Z" style="fill:rgb(97,97,97);fill-rule:nonzero;"/>
                <path d="M108.91,102.64C107.98,107.76 106.24,112.64 104.17,117.4C103.09,114.16 101.53,111.56 103.05,108.15C104.02,105 106.08,103.89 108.91,102.64Z" style="fill:rgb(152,152,152);fill-rule:nonzero;"/>
                <path d="M170.39,103.3C171.92,102.07 173.82,103.93 172.58,105.48C171.07,106.76 169.14,104.82 170.39,103.3Z" style="fill:rgb(152,152,152);fill-rule:nonzero;"/>
                <path d="M161.63,103.17C163.62,103.35 165.72,103.38 167.67,103.88C168.76,104.9 169.7,106.11 170.65,107.26C167.79,107.38 164.92,107.42 162.05,107.47C161.91,106.03 161.77,104.6 161.63,103.17Z" style="fill:rgb(247,247,247);fill-rule:nonzero;"/>
                <path d="M189.21,103.75C193.21,108.49 194.96,113.09 192.63,119.14C191.03,114.12 189.74,109.01 189.21,103.75Z" style="fill:rgb(152,152,152);fill-rule:nonzero;"/>
                <path d="M161,108.85C159.81,109.41 158.62,109.96 157.43,110.5C158.13,110.92 158.82,111.34 159.51,111.76C159.46,112.7 159.4,113.63 159.35,114.56C157.52,113.08 155.69,111.6 153.89,110.08C156.26,109.64 158.62,109.22 161,108.85Z" style="fill:rgb(177,177,177);fill-rule:nonzero;"/>
                <path d="M157.51,115.16C158.49,113.64 160.45,115.33 158.9,116.41C157.88,116.57 157.42,116.16 157.51,115.16Z" style="fill:rgb(177,177,177);fill-rule:nonzero;"/>
                <path d="M177.35,118.98C180.96,118.63 184.07,118.86 187.54,119.92C183.86,120.35 180.87,120.11 177.35,118.98Z" style="fill:rgb(22,22,22);fill-rule:nonzero;"/>
                <path d="M117.96,119.84C125.94,119.93 134.22,119.57 141.78,122.23C135.11,122.38 128.63,120.99 121.97,121.3C118.05,121.47 114.17,121.78 110.25,121.51C112.81,120.35 115.12,119.75 117.96,119.84Z" style="fill:rgb(97,97,97);fill-rule:nonzero;"/>
                <path d="M99.34,121.03C100.51,123.42 101.76,125.59 101.23,128.36C98.99,140.01 94.78,150.33 93.86,162.25C101.58,162.51 109.28,162.13 117,162.17C124.33,162.18 131.64,162.49 138.97,162.54C138.51,163.2 138.06,163.87 137.6,164.54C130.71,164.94 123.89,165.79 117,166C106.72,166.24 96.5,167.2 86.21,167.22C87.4,161.06 89.15,155.13 91.11,149.18C93.7,139.78 96.08,130.22 99.34,121.03Z" style="fill:rgb(152,152,152);fill-rule:nonzero;"/>
                <path d="M196.96,124.89C199.93,129.35 201.54,134.52 203.48,139.54C206.49,147.36 208.27,155.67 210.12,163.9C202.06,164.76 194.07,164.26 186,163.95C177.72,163.58 169.6,164.59 161.34,164.84C161.21,163.46 161.07,162.09 160.92,160.72C165.28,160.64 169.64,160.67 174,160.9C184.03,161.46 194.17,161.2 204.22,161.11C204.04,156.53 203.81,152.09 202.3,147.72C200.13,140.62 195.76,132.38 196.96,124.89Z" style="fill:rgb(152,152,152);fill-rule:nonzero;"/>
                <path d="M126.01,125.91C129.24,125.94 132.44,126.17 135.61,126.85C130.03,127.48 124.58,127.01 119,127.1C115.79,127.15 112.59,127.1 109.39,126.76C114.99,125.46 120.33,125.81 126.01,125.91Z" style="fill:rgb(22,22,22);fill-rule:nonzero;"/>
                <path d="M136.83,127.12C137.61,126.24 139.48,126.4 140.21,127.27C140.65,128.91 136.39,128.67 136.83,127.12Z" style="fill:rgb(22,22,22);fill-rule:nonzero;"/>
                <path d="M189.32,151.27C187.72,151.54 186.14,151.86 184.54,152.12C175.79,152.21 167.48,151.43 158.84,153.54C167.68,153.57 176.47,152.55 185.32,152.98C190.2,153.83 195.11,153.94 200.05,153.92C200.79,154.61 201.53,155.3 202.26,155.99C193.15,155.92 184.13,154.94 175,155.1C168.14,155.15 161.47,155.96 154.66,156.68C155.69,155.81 156.73,154.95 157.77,154.09C155.69,154.19 153.61,154.28 151.53,154.34C154.09,153.15 156.64,152.06 159.41,151.44C169.31,149.42 179.39,149.48 189.32,151.27Z" style="fill:rgb(177,177,177);fill-rule:nonzero;"/>
                <path d="M97.56,151.43C105.15,150.6 112.86,150.71 120.45,151.44C112.92,152.55 105.08,152.73 97.56,151.43Z" style="fill:rgb(152,152,152);fill-rule:nonzero;"/>
                <path d="M189.32,151.27C193.54,151.5 197.76,151.81 201.97,152.11C201.33,152.72 200.69,153.32 200.05,153.92C195.11,153.94 190.2,153.83 185.32,152.98L184.54,152.12C186.14,151.86 187.72,151.54 189.32,151.27Z" style="fill:rgb(114,114,114);fill-rule:nonzero;"/>
                <path d="M131.27,152.29C128.74,152.78 126.21,153.21 123.68,153.7C126.28,153.71 128.88,153.67 131.48,153.57C133.75,154.31 135.99,155.15 138.23,155.97C131.97,156.21 125.78,156.01 119.54,155.48C111.91,154.84 104.56,156.24 96.9,156.11C97.02,155.11 97.14,154.11 97.27,153.11C104.18,152.71 111.09,153.07 118.01,152.72C122.43,152.5 126.84,152.24 131.27,152.29Z" style="fill:rgb(177,177,177);fill-rule:nonzero;"/>
                <path d="M184.54,152.12L185.32,152.98C176.47,152.55 167.68,153.57 158.84,153.54C167.48,151.43 175.79,152.21 184.54,152.12Z" style="fill:rgb(22,22,22);fill-rule:nonzero;"/>
                <path d="M145.17,155.58C143.01,156.38 140.88,157.17 138.67,157.8C124.77,156.82 110.6,156.45 96.71,157.59L96.9,156.11C104.56,156.24 111.91,154.84 119.54,155.48C125.78,156.01 131.97,156.21 138.23,155.97C135.99,155.15 133.75,154.31 131.48,153.57C136.95,152.8 140.21,153.14 145.17,155.58Z" style="fill:rgb(97,97,97);fill-rule:nonzero;"/>
                <path d="M138.67,157.8C139.58,158.39 140.45,159.04 141.29,159.74C137.62,160.42 133.95,160.8 130.22,160.52C118.99,159.67 107.67,159.86 96.42,159.9C96.52,159.13 96.62,158.36 96.71,157.59C110.6,156.45 124.77,156.82 138.67,157.8Z" style="fill:rgb(177,177,177);fill-rule:nonzero;"/>
                <path d="M147.42,157.69C152.5,156.83 156.04,159.97 159.57,163.06C156.85,165.2 154.46,167.28 150.89,167.81C146.68,168.66 142.8,167.66 138.86,166.22C141.05,163.3 143.74,158.74 147.42,157.69Z" style="fill:rgb(97,97,97);fill-rule:nonzero;"/>
                <path d="M157.42,157.72C165.71,155.98 173.59,156.38 182,156.42C189.11,156.64 195.66,156.28 202.5,158.59C194.23,159.77 185.5,158.82 177,158.8C170.17,158.59 164.11,159.8 157.42,157.72Z" style="fill:rgb(177,177,177);fill-rule:nonzero;"/>
                <path d="M169,166.19C182.38,166.53 195.86,165.81 209.21,166.48C196.17,167.26 183.02,166.58 169.96,166.59C167.23,166.62 164.65,167.27 162.11,168.2C160.42,168.77 158.76,169.41 157.05,169.93C156.42,169.33 155.8,168.73 155.17,168.12C159.84,166.59 164.07,166.03 169,166.19Z" style="fill:rgb(97,97,97);fill-rule:nonzero;"/>
                <path d="M162.11,168.2C174.43,168.4 186.69,167.58 199.01,168.33C202.87,168.46 206.68,168.71 210.46,169.53C206.29,170.06 202.19,170.2 198,170.03C187.67,169.6 177.29,169.65 166.96,170.02C160.09,170.23 153.6,172.42 146.79,172.78C141.98,173.04 137.87,171.62 133.23,170.87C128.96,170.17 124.53,170.93 120.24,171.33C112.61,172.15 105.05,171.96 97.4,172.53C92.74,172.8 88.57,173.48 84.14,171.5C96.34,170.25 108.7,170.79 120.92,169.68C124.25,169.38 127.67,168.91 131.01,169.05C136.12,169.27 140.56,171.41 145.8,171.31C149.57,171.19 153.35,170.66 157.05,169.93C158.76,169.41 160.42,168.77 162.11,168.2Z" style="fill:rgb(212,212,212);fill-rule:nonzero;"/>
            </g>
        </g>
    </g>
</svg>
